<?xml version="1.0" standalone="no"?>
<!DOCTYPE svg PUBLIC "-//W3C//DTD SVG 20010904//EN"
 "http://www.w3.org/TR/2001/REC-SVG-20010904/DTD/svg10.dtd">
<svg version="1.0" xmlns="http://www.w3.org/2000/svg"
 width="13066.000000pt" height="13500.000000pt" viewBox="0 0 13066.000000 13500.000000"
 preserveAspectRatio="xMidYMid meet">

<g transform="translate(0.000000,13500.000000) scale(0.100000,-0.100000)"
fill="#000000" stroke="none">
<path d="M108620 134993 c-278 -16 -619 -88 -890 -188 -437 -161 -807 -400
-1140 -734 -501 -503 -783 -1076 -897 -1821 -17 -109 -18 -634 -23 -10015 -5
-9114 -7 -9909 -22 -10011 -77 -521 -238 -951 -502 -1348 -538 -804 -1399
-1313 -2361 -1396 -78 -6 -1031 -10 -2717 -10 -1710 0 -2641 -4 -2725 -10
-1155 -94 -2156 -803 -2629 -1860 -125 -280 -202 -561 -252 -915 -15 -111 -16
-847 -20 -10285 -2 -6971 0 -10221 7 -10343 29 -485 156 -939 376 -1339 72
-131 223 -358 312 -468 95 -119 319 -346 436 -443 480 -398 1010 -626 1657
-714 116 -16 529 -17 5665 -23 l5540 -6 125 -21 c492 -84 874 -232 1264 -490
763 -506 1271 -1326 1391 -2248 27 -204 36 -455 42 -1145 10 -1157 -37 -2001
-168 -3040 -393 -3119 -1469 -5813 -3068 -7685 -257 -301 -669 -720 -936 -954
-2029 -1776 -4554 -2348 -7265 -1645 -1429 370 -2874 1073 -4350 2114 -420
297 -621 456 -837 666 -61 60 -700 721 -1420 1469 -3790 3941 -8725 9053
-10662 11045 -877 902 -1768 1777 -2449 2407 -3026 2798 -6201 5096 -9592
6940 -868 472 -1904 989 -2800 1396 -5254 2384 -10911 3689 -17010 3922 -791
30 -1362 38 -2355 32 -961 -6 -1224 -11 -1990 -42 -6523 -263 -12553 -1627
-18070 -4088 -1039 -463 -2130 -1001 -3125 -1539 -4145 -2244 -8006 -5164
-11520 -8714 -5625 -5683 -9480 -12055 -11639 -19239 -1330 -4427 -2001 -9195
-2001 -14215 0 -4760 604 -9260 1815 -13520 1995 -7021 5640 -13361 10939
-19025 156 -166 265 -280 863 -905 509 -532 1404 -1399 2128 -2064 5212 -4782
11040 -8200 17405 -10206 3637 -1146 7365 -1828 11400 -2085 789 -50 555 -46
5550 -85 1433 -11 3161 -25 3840 -30 679 -5 1829 -14 2555 -20 726 -6 1856
-15 2510 -20 3801 -31 4020 -32 4620 -21 640 12 958 22 1470 46 6223 294
11474 1813 15774 4563 1526 975 2931 2112 4369 3537 2571 2544 4747 5603 6535
9185 2737 5481 4255 11404 4527 17665 35 816 51 1837 31 2040 -71 726 -373
1377 -880 1898 -497 510 -1132 827 -1848 922 -144 20 -771 29 -2863 45 -800 6
-1984 15 -2630 20 -1388 11 -3058 25 -5625 45 -1028 8 -2448 19 -3155 25 -707
6 -1823 15 -2480 20 -1220 11 -1346 9 -1574 -26 -423 -63 -820 -207 -1182
-429 -658 -403 -1154 -1045 -1369 -1774 -69 -234 -94 -375 -135 -766 -268
-2546 -839 -4477 -1747 -5905 -555 -872 -1245 -1541 -2148 -2081 -1675 -1003
-4078 -1558 -7180 -1658 -243 -8 -5582 -1 -13925 18 l-3565 8 -285 36 c-157
20 -361 46 -455 58 -2213 269 -3938 864 -5465 1882 -954 636 -1802 1387 -3204
2837 -986 1020 -1234 1283 -1576 1670 -3168 3585 -4898 7781 -5194 12595 -34
546 -41 796 -41 1505 0 709 7 960 41 1505 307 4998 2138 9311 5514 12990 1915
2087 4094 3705 6435 4780 2064 947 4287 1501 6670 1660 522 34 713 40 1450 40
739 0 951 -6 1475 -40 4453 -295 8346 -1950 11655 -4955 301 -273 736 -693
967 -933 232 -239 463 -457 1213 -1137 1960 -1780 7017 -6312 13165 -11800
514 -459 1192 -1064 1505 -1344 714 -638 697 -624 1190 -953 1406 -938 3090
-1859 4751 -2599 2958 -1317 5876 -2097 8604 -2298 488 -36 957 -56 1345 -56
132 0 371 -5 530 -10 2389 -82 3580 -73 5095 35 3329 239 6520 945 9635 2130
1685 641 3404 1459 5030 2393 4326 2485 7861 5711 10607 9682 1825 2639 3253
5752 4242 9245 973 3437 1531 7232 1691 11485 41 1120 40 106 40 27815 0
25369 -1 26495 -18 26615 -74 522 -229 939 -502 1350 -387 584 -960 1025
-1621 1245 -202 68 -377 107 -654 147 -66 9 -2184 12 -9635 13 -5252 1 -9575
0 -9605 -2z"/>
</g>
</svg>
